# xmcd
#
# Track frame offsets:
#	150
#	17900
#	31513
#	45632
#	59719
#	73525
#	88920
#	104079
#	119159
#	129588
#	138983
#	156378
#	170999
#	190125
#	203789
#	217390
#	230588
#	243007
#	256220
#	270340
#
# Disc length: 3848 seconds
#
# Revision: 0
# Processed by: cddbd v1.5.2PL0 Copyright (c) Steve Scherf et al.
# Submitted via: EasyCDDAExtractor 16.0.6.1
#
DISCID=350f0614
DTITLE=Συλλογικός δίσκος - Τα ρεμπέτικα Β 1922-1937 04 Β
DYEAR=2010
DGENRE=Ρεμπέτικη
TTITLE0=Μπέζος Κώστας ή Κωστής Α. - Ήσουνα ξυπόλυτη [ζεϊμπέκικο, Αθήνα 20.5.19
TTITLE0=30]
TTITLE1=Εσκενάζυ Ρόζα - Η χασικλού [Παν. Τούντας, Αθήνα 1931]
TTITLE2=Διαμαντίδης Αντώνης ή Νταλγκάς - Σμυρνιά καμωματού [Δημ. Σέμσης, Αθήνα
TTITLE2=1928]
TTITLE3=Καρίπης Κώστας - Το μάγκικο [χασάπικος, Λαουτάρι, Αθήνα 1929]
TTITLE4=Μαρσέλος Κώστας ή Νούρος - Τρελλοκόριτσο [Ι. Δραγάτσης, Αθήνα 1929]
TTITLE5=Εσκενάζυ Ρόζα - Θε να 'ρθώ στους Ποδαράδες [Παν. Τούντας, Αθήνα 1931]
TTITLE6=Διαμαντίδης Αντώνης ή Νταλγκάς - Μπάλλος ματζόρε μανές [Αθήνα 11.7.192
TTITLE6=8]
TTITLE7=Καλλίνικος Δημήτρης ή Αραπάκης - Άϊντε ρε μόρτη Πειραιώτη [Μιχ. Σκουλο
TTITLE7=ύδης, Αθήνα 1931]
TTITLE8=Μισαηλίδης Κώστας - Σμυρνιά [λαϊκόν, Παν. Τούντας, Αθήνα 1924]
TTITLE9=Εσκενάζυ Ρόζα - Μέσ' στου Μάνθου τον τεκέ [ζεϊμπ., Κώστας Τζόβενος, Αθ
TTITLE9=ήνα 12.1933]
TTITLE10=Κατσαρός Γιώργος - Στης Σμύρνης τον ανήφορο [ζεϊμπ., Ν. Υερσέη 30.1.1
TTITLE10=928]
TTITLE11=Διαμαντίδης Αντώνης ή Νταλγκάς - Μ' αδειάσαν τη σακκούλα [Παν. Βαϊνδι
TTITLE11=ρλής, Αθήνα 1928]
TTITLE12=Σγουρός Νώντας - Χαρτοπαίχτης [ζεϊμπ., Ιερόθεος Σχίζας, τρ. Τ.Δημητρι
TTITLE12=άδης, Αθ. 8.1.1929]
TTITLE13=Εσκενάζυ Ρόζα - Πληγές ν' ανοίξης πολεμάς [Ν. Υόρκη 1932]
TTITLE14=Βιδάλης Γιώργος - Πασσαλιμανιώτισσα [Παν. Τούντας, Αθήνα 1929]
TTITLE15=Καρίπης Κώστας - Αχ αγορίνα μου [ρεμπ., Κώστας Κοντόπουλος, Αθήνα 193
TTITLE15=0]
TTITLE16=Μαρσέλος Κώστας ή Νούρος - Αγοροκοριτσάρα [χασάπ., Παν. Τούντας, Αθήν
TTITLE16=α 1930]
TTITLE17=Εσκενάζυ Ρόζα - Αλανιάρα μερακλού [τσιφτετέλι, Μενέλ. Μιχαηλίδης, Αθή
TTITLE17=να 1930]
TTITLE18=Βιδάλης Γιώργος-Βαλέρης - Προσφυγοπούλα [Παν. Τούντας, Αθήνα 1927]
TTITLE19=Ιωαννίδης Γιαννάκης-Κουρούκλη Λίζα-Καρνέρη Μάκη - Παλιά στρατώνα [ρεμ
TTITLE19=π., Δημοσ. Ζάττας-Ορ. Καραβίας, Ν. Υόρ. 5.1929]
EXTD=
EXTT0=
EXTT1=
EXTT2=
EXTT3=
EXTT4=
EXTT5=
EXTT6=
EXTT7=
EXTT8=
EXTT9=
EXTT10=
EXTT11=
EXTT12=
EXTT13=
EXTT14=
EXTT15=
EXTT16=
EXTT17=
EXTT18=
EXTT19=
PLAYORDER=
